# xmcd CD database file
#
# Track frame offsets:
#	150
#	23555
#	46333
#	69031
#	88086
#	111815
#	134074
#	150478
#	171724
#
# Disc length: 2574 seconds
#
# Revision: 2
# Processed by: cddbd v1.5.2PL0 Copyright (c) Steve Scherf et al.
# Submitted via: CDex 1.51
#
DISCID=720a0c09
DTITLE=????? - method
DYEAR=2003
DGENRE=New Age
TTITLE0=?????
TTITLE1=??
TTITLE2=Triangle
TTITLE3=never my love
TTITLE4=???????
TTITLE5=??????Marie???
TTITLE6=soy cantante
TTITLE7=?????
TTITLE8=?????
EXTD=YEAR: 2003
EXTT0=
EXTT1=
EXTT2=
EXTT3=
EXTT4=
EXTT5=
EXTT6=
EXTT7=
EXTT8=
PLAYORDER=
